<svg width="66" height="59" viewBox="0 0 66 59" fill="none" xmlns="http://www.w3.org/2000/svg">
<path d="M42.2604 22.2658C40.5276 22.2651 38.8537 22.9057 37.5531 24.0675C36.2518 25.2285 35.4121 26.8316 35.1919 28.5756C34.9716 30.3197 35.3848 32.0859 36.355 33.543H29.647C30.841 31.7463 31.177 29.501 30.5646 27.4261C29.9514 25.3503 28.4529 23.6633 26.4825 22.8288C24.5118 21.9945 22.2768 22.1006 20.3918 23.1185C18.5069 24.1358 17.1704 25.9582 16.7516 28.0823C16.3328 30.2072 16.8743 32.4104 18.2283 34.0861C19.5822 35.7611 21.6055 36.7327 23.7401 36.7321H42.2594C44.8067 36.7321 47.1595 35.3533 48.4328 33.1151C49.7061 30.8778 49.7061 28.12 48.4328 25.8825C47.1596 23.6445 44.8067 22.2655 42.2594 22.2655L42.2604 22.2658ZM19.7559 29.4989C19.7559 28.4261 20.1754 27.3983 20.9233 26.6394C21.6704 25.8813 22.6841 25.4556 23.7412 25.4556C24.7977 25.4556 25.8113 25.882 26.5586 26.6402C27.3058 27.399 27.726 28.4269 27.726 29.4996C27.7253 30.5724 27.3058 31.6002 26.5579 32.3591C25.8108 33.1172 24.7971 33.5429 23.74 33.5429C22.6842 33.5415 21.6711 33.1151 20.924 32.3569C20.1769 31.5988 19.7566 30.571 19.7559 29.4989ZM42.2604 33.5429H42.2597C41.2032 33.5429 40.1895 33.1165 39.4417 32.3584C38.6946 31.6002 38.2751 30.5716 38.2751 29.4989C38.2751 28.4262 38.6946 27.3975 39.4417 26.6394C40.1896 25.8813 41.2033 25.4549 42.2597 25.4549C43.3169 25.4549 44.3305 25.8813 45.0776 26.6394C45.8255 27.3976 46.245 28.4262 46.245 29.4989C46.2443 30.571 45.824 31.5988 45.0769 32.3571C44.3298 33.1154 43.3168 33.5416 42.2595 33.543L42.2604 33.5429ZM58.1114 49.6857C63.3209 44.0634 66.1509 36.5932 65.9938 28.878C65.8366 21.1622 62.7051 13.8166 57.2711 8.41839C51.837 3.01892 44.5342 -0.00291367 36.9289 2.10812e-06H29.0718C18.6857 2.10812e-06 9.0888 5.62235 3.89504 14.7498C-1.29835 23.8773 -1.29835 35.122 3.89504 44.2502C9.08772 53.3776 18.6852 59 29.0718 59H62.5115C63.1261 59.0021 63.6852 58.6405 63.9419 58.0739C64.1994 57.5079 64.1068 56.8416 63.7062 56.369L58.1114 49.6857ZM29.0716 55.8092C19.808 55.8092 11.2487 50.7941 6.61745 42.654C1.98528 34.5139 1.98528 24.4838 6.61745 16.3427C11.2489 8.20263 19.8082 3.18749 29.0716 3.18749H33.7859C40.6629 3.18322 47.2587 5.9531 52.122 10.887C56.985 15.8208 59.716 22.5138 59.7133 29.4914C59.7112 36.4698 56.9753 43.1606 52.108 48.0904C52.0119 48.205 51.9067 48.3118 51.7938 48.4093C51.1526 48.9867 51.0831 49.9783 51.6366 50.6417L55.9734 55.8085L29.0716 55.8092Z" fill="white"/>
</svg>
