<svg width="36" height="34" viewBox="0 0 36 34" fill="none" xmlns="http://www.w3.org/2000/svg">
<path d="M5.35216 21.3669L6.38941 20.2833H6.38941L5.35216 21.3669ZM30.7907 21.3669L29.7534 20.2833L29.7534 20.2833L30.7907 21.3669ZM30.32 3.61988L31.3572 2.53632V2.53632L30.32 3.61988ZM14.104 26.9317L13.0667 28.0153L13.0667 28.0153L14.104 26.9317ZM14.0032 26.8352L15.0404 25.7516L15.0404 25.7516L14.0032 26.8352ZM32.5357 27.6142C33.3641 27.6142 34.0357 26.9426 34.0357 26.1142C34.0357 25.2858 33.3641 24.6142 32.5357 24.6142V27.6142ZM22.1397 26.8352L21.1024 25.7516L21.1024 25.7516L22.1397 26.8352ZM22.0389 26.9317L23.0761 28.0153L23.0761 28.0153L22.0389 26.9317ZM23.1834 26.1567L22.8474 24.6948H22.8474L23.1834 26.1567ZM22.7188 26.3409L21.9599 25.0471L21.9599 25.0471L22.7188 26.3409ZM14.6831 27.426L13.9241 28.7198H13.9241L14.6831 27.426ZM15.1477 27.6102L15.4836 26.1483H15.4836L15.1477 27.6102ZM20.9952 27.6102L20.6592 26.1483L20.9952 27.6102ZM21.4597 27.426L22.2187 28.7198L22.2187 28.7198L21.4597 27.426ZM13.424 26.3409L14.183 25.0471H14.183L13.424 26.3409ZM12.9595 26.1567L13.2955 24.6948H13.2954L12.9595 26.1567ZM4.38237 32.1632L4.75505 30.7103H4.75505L4.38237 32.1632ZM2.10952 29.9875L3.554 29.5832L2.10952 29.9875ZM34.0333 29.9875L35.4778 30.3918V30.3918L34.0333 29.9875ZM31.7605 32.1632L31.3878 30.7103H31.3878L31.7605 32.1632ZM34.0881 27.2545L32.6436 27.6588L32.6436 27.6588L34.0881 27.2545ZM32.9517 26.1666L33.3244 24.7137L33.3243 24.7137L32.9517 26.1666ZM25.3036 10.275H26.8036C26.8036 10.2677 26.8035 10.2604 26.8034 10.2531L25.3036 10.275ZM18.0714 18.4219L17.4956 19.807C17.8642 19.9602 18.2787 19.9602 18.6473 19.807L18.0714 18.4219ZM10.8393 10.275L9.33945 10.2531C9.33934 10.2604 9.33929 10.2677 9.33929 10.275H10.8393ZM18.0714 7.66972L16.8922 8.59674C17.1766 8.9585 17.6113 9.16972 18.0714 9.16972C18.5316 9.16972 18.9663 8.9585 19.2507 8.59674L18.0714 7.66972ZM14.0536 3.76807H22.0893V0.768066H14.0536V3.76807ZM30.2321 11.4988V16.1142H33.2321V11.4988H30.2321ZM5.91071 16.1142V11.4988H2.91071V16.1142H5.91071ZM10.8393 23.7681H25.3036V20.7681H10.8393V23.7681ZM2.91071 16.1142C2.91071 17.5205 2.90724 18.7327 3.04297 19.6991C3.18574 20.7156 3.50769 21.6777 4.3149 22.4504L6.38941 20.2833C6.25518 20.1548 6.10641 19.9411 6.01382 19.2818C5.91418 18.5724 5.91071 17.6089 5.91071 16.1142H2.91071ZM10.8393 20.7681C9.28342 20.7681 8.26105 20.7651 7.50381 20.6677C6.78325 20.575 6.53285 20.4206 6.38941 20.2833L4.3149 22.4504C5.11291 23.2143 6.09084 23.5106 7.12087 23.6431C8.11422 23.771 9.3647 23.7681 10.8393 23.7681V20.7681ZM30.2321 16.1142C30.2321 17.6089 30.2287 18.5724 30.129 19.2818C30.0364 19.9411 29.8877 20.1548 29.7534 20.2833L31.828 22.4504C32.6352 21.6777 32.9571 20.7156 33.0999 19.6991C33.2356 18.7327 33.2321 17.5205 33.2321 16.1142H30.2321ZM25.3036 23.7681C26.7782 23.7681 28.0286 23.771 29.022 23.6431C30.052 23.5106 31.0299 23.2143 31.828 22.4504L29.7534 20.2833C29.61 20.4206 29.3596 20.575 28.639 20.6677C27.8818 20.7651 26.8594 20.7681 25.3036 20.7681V23.7681ZM22.0893 3.76807C24.4028 3.76807 25.9933 3.77099 27.1882 3.92477C28.3464 4.07384 28.9039 4.34083 29.2827 4.70344L31.3572 2.53632C30.3239 1.54712 29.0389 1.13821 27.5712 0.949315C26.1402 0.765143 24.3215 0.768066 22.0893 0.768066V3.76807ZM33.2321 11.4988C33.2321 9.36737 33.2356 7.61123 33.041 6.22588C32.8394 4.79042 32.3998 3.53434 31.3572 2.53632L29.2827 4.70344C29.6523 5.05724 29.9188 5.56492 30.0702 6.64313C30.2287 7.77145 30.2321 9.27888 30.2321 11.4988H33.2321ZM14.0536 0.768066C11.8214 0.768066 10.0027 0.765143 8.57168 0.949315C7.104 1.13821 5.81899 1.54712 4.78562 2.53632L6.86013 4.70344C7.23893 4.34083 7.79642 4.07384 8.95463 3.92477C10.1495 3.77099 11.7401 3.76807 14.0536 3.76807V0.768066ZM5.91071 11.4988C5.91071 9.27888 5.91418 7.77145 6.07266 6.64313C6.22409 5.56492 6.49054 5.05724 6.86013 4.70344L4.78562 2.53632C3.74305 3.53434 3.30342 4.79042 3.10181 6.22588C2.90724 7.61123 2.91071 9.36737 2.91071 11.4988H5.91071ZM15.1413 25.8482L15.0404 25.7516L12.9659 27.9187L13.0667 28.0153L15.1413 25.8482ZM12.1849 24.6142H3.60714V27.6142H12.1849V24.6142ZM20.2206 26.1527H15.9223V29.1527H20.2206V26.1527ZM32.5357 24.6142H32V27.6142H32.5357V24.6142ZM21.1024 25.7516L21.0016 25.8482L23.0761 28.0153L23.177 27.9187L21.1024 25.7516ZM23.958 24.6142C23.6335 24.6142 23.2368 24.6053 22.8474 24.6948L23.5193 27.6186C23.4925 27.6248 23.4902 27.6211 23.5582 27.6181C23.6393 27.6145 23.7489 27.6142 23.958 27.6142V24.6142ZM23.177 27.9187C23.3253 27.7767 23.4014 27.7044 23.4595 27.6536C23.5071 27.6121 23.5047 27.6189 23.4778 27.6348L21.9599 25.0471C21.6112 25.2516 21.3303 25.5335 21.1024 25.7516L23.177 27.9187ZM22.8474 24.6948C22.5361 24.7664 22.2365 24.8848 21.9599 25.0471L23.4778 27.6348C23.4887 27.6283 23.5027 27.6224 23.5193 27.6186L22.8474 24.6948ZM13.0667 28.0153C13.2946 28.2334 13.5755 28.5153 13.9241 28.7198L15.4421 26.1322C15.469 26.148 15.4713 26.1548 15.4238 26.1133C15.3656 26.0625 15.2896 25.9902 15.1412 25.8482L13.0667 28.0153ZM15.9223 26.1527C15.7132 26.1527 15.6036 26.1524 15.5225 26.1488C15.4545 26.1458 15.4568 26.1421 15.4836 26.1483L14.8117 29.0721C15.2011 29.1616 15.5978 29.1527 15.9223 29.1527V26.1527ZM13.9241 28.7198C14.2008 28.8821 14.5004 29.0005 14.8117 29.0721L15.4836 26.1483C15.467 26.1445 15.453 26.1386 15.4421 26.1322L13.9241 28.7198ZM20.2206 29.1527C20.5451 29.1527 20.9418 29.1616 21.3312 29.0721L20.6592 26.1483C20.686 26.1421 20.6884 26.1458 20.6203 26.1488C20.5392 26.1524 20.4296 26.1527 20.2206 26.1527V29.1527ZM21.0016 25.8482C20.8533 25.9902 20.7772 26.0625 20.7191 26.1133C20.6715 26.1548 20.6738 26.148 20.7008 26.1322L22.2187 28.7198C22.5673 28.5153 22.8483 28.2334 23.0761 28.0153L21.0016 25.8482ZM21.3312 29.0721C21.6425 29.0005 21.9421 28.8821 22.2187 28.7198L20.7008 26.1322C20.6898 26.1386 20.6759 26.1445 20.6592 26.1483L21.3312 29.0721ZM15.0404 25.7516C14.8126 25.5335 14.5316 25.2516 14.183 25.0471L12.6651 27.6347C12.6381 27.6189 12.6358 27.6121 12.6834 27.6536C12.7415 27.7044 12.8176 27.7767 12.9659 27.9187L15.0404 25.7516ZM12.1849 27.6142C12.3939 27.6142 12.5035 27.6145 12.5846 27.6181C12.6527 27.6211 12.6503 27.6248 12.6235 27.6186L13.2954 24.6948C12.906 24.6053 12.5094 24.6142 12.1849 24.6142V27.6142ZM14.183 25.0471C13.9064 24.8848 13.6068 24.7664 13.2955 24.6948L12.6235 27.6186C12.6402 27.6224 12.6541 27.6283 12.6651 27.6347L14.183 25.0471ZM29.8571 30.7681H6.28571V33.7681H29.8571V30.7681ZM3.5 28.1655V27.6527H0.5V28.1655H3.5ZM6.28571 30.7681C5.19653 30.7681 4.93414 30.7562 4.75505 30.7103L4.00968 33.6162C4.64809 33.7799 5.3821 33.7681 6.28571 33.7681V30.7681ZM0.5 28.1655C0.5 29.0189 0.486025 29.7523 0.665045 30.3918L3.554 29.5832C3.51398 29.4402 3.5 29.2198 3.5 28.1655H0.5ZM4.75505 30.7103C4.14007 30.5525 3.7001 30.1051 3.554 29.5832L0.665045 30.3918C1.11338 31.9935 2.40622 33.2049 4.00968 33.6162L4.75505 30.7103ZM32.6429 28.1655C32.6429 29.2198 32.6289 29.4402 32.5889 29.5832L35.4778 30.3918C35.6568 29.7523 35.6429 29.0188 35.6429 28.1655H32.6429ZM29.8571 33.7681C30.7608 33.7681 31.4948 33.7799 32.1332 33.6162L31.3878 30.7103C31.2087 30.7562 30.9463 30.7681 29.8571 30.7681V33.7681ZM32.5889 29.5832C32.4428 30.1051 32.0028 30.5525 31.3878 30.7103L32.1332 33.6162C33.7366 33.2049 35.0295 31.9935 35.4778 30.3918L32.5889 29.5832ZM35.6429 28.1655C35.6429 27.7891 35.6568 27.2941 35.5326 26.8502L32.6436 27.6588C32.6278 27.6024 32.6334 27.5848 32.6377 27.6759C32.6425 27.7756 32.6429 27.9128 32.6429 28.1655H35.6429ZM32 27.6142C32.2621 27.6142 32.4108 27.6146 32.5206 27.6193C32.6229 27.6238 32.62 27.6301 32.579 27.6196L33.3243 24.7137C32.8903 24.6024 32.4054 24.6142 32 24.6142V27.6142ZM35.5326 26.8502C35.2328 25.7794 34.3732 24.9827 33.3244 24.7137L32.579 27.6196C32.6394 27.6351 32.6461 27.6678 32.6436 27.6588L35.5326 26.8502ZM3.5 27.6527C3.5 27.6527 3.49997 27.6541 3.49951 27.6562C3.49908 27.6582 3.49855 27.6596 3.49833 27.6601C3.49796 27.6609 3.49995 27.6561 3.50798 27.6484C3.5242 27.6329 3.55612 27.6142 3.60714 27.6142V24.6142C1.95353 24.6142 0.5 25.9135 0.5 27.6527H3.5ZM32 24.6142H23.958V27.6142H32V24.6142ZM23.8036 10.275C23.8036 12.1187 22.4852 13.7668 20.7715 15.0882C19.9515 15.7205 19.1227 16.2132 18.4947 16.5487C18.1825 16.7155 17.9245 16.841 17.748 16.9233C17.6599 16.9644 17.5925 16.9946 17.5492 17.0136C17.5276 17.0231 17.512 17.0298 17.5029 17.0337C17.4984 17.0357 17.4954 17.0369 17.4942 17.0374C17.4936 17.0377 17.4934 17.0378 17.4936 17.0377C17.4937 17.0376 17.494 17.0375 17.4943 17.0374C17.4945 17.0373 17.4948 17.0372 17.4949 17.0371C17.4952 17.037 17.4956 17.0368 18.0714 18.4219C18.6473 19.807 18.6477 19.8068 18.6482 19.8066C18.6483 19.8065 18.6488 19.8063 18.6492 19.8062C18.65 19.8058 18.6509 19.8055 18.6519 19.8051C18.6539 19.8042 18.6563 19.8032 18.6591 19.802C18.6649 19.7996 18.6723 19.7964 18.6815 19.7925C18.6997 19.7847 18.7248 19.7739 18.7561 19.7602C18.8187 19.7326 18.9067 19.6932 19.0163 19.642C19.2354 19.5398 19.5424 19.3903 19.9082 19.1949C20.6362 18.806 21.6155 18.2258 22.6035 17.4639C24.5059 15.9969 26.8036 13.5716 26.8036 10.275H23.8036ZM18.0714 18.4219C18.6473 17.0368 18.6476 17.037 18.648 17.0371C18.6481 17.0372 18.6484 17.0373 18.6486 17.0374C18.6489 17.0375 18.6491 17.0376 18.6492 17.0377C18.6495 17.0378 18.6493 17.0377 18.6487 17.0374C18.6474 17.0369 18.6445 17.0357 18.64 17.0337C18.6309 17.0298 18.6153 17.0231 18.5937 17.0136C18.5504 16.9946 18.4829 16.9644 18.3948 16.9233C18.2184 16.841 17.9604 16.7155 17.6482 16.5487C17.0201 16.2132 16.1914 15.7205 15.3713 15.0882C13.6577 13.7668 12.3393 12.1187 12.3393 10.275H9.33929C9.33929 13.5716 11.637 15.9969 13.5394 17.4639C14.5274 18.2258 15.5067 18.806 16.2346 19.1949C16.6005 19.3903 16.9075 19.5398 17.1265 19.642C17.2362 19.6932 17.3241 19.7326 17.3868 19.7602C17.4181 19.7739 17.4431 19.7847 17.4614 19.7925C17.4705 19.7964 17.478 19.7996 17.4837 19.802C17.4866 19.8032 17.489 19.8042 17.491 19.8051C17.492 19.8055 17.4929 19.8058 17.4936 19.8062C17.494 19.8063 17.4945 19.8065 17.4947 19.8066C17.4952 19.8068 17.4956 19.807 18.0714 18.4219ZM12.3391 10.297C12.3475 9.72568 12.5253 9.17587 12.8415 8.72209L10.3803 7.00673C9.71742 7.95785 9.35643 9.09121 9.33945 10.2531L12.3391 10.297ZM12.8415 8.72209C13.1573 8.26896 13.5935 7.93631 14.0845 7.75943L13.0677 4.93698C11.9797 5.32895 11.0437 6.05496 10.3803 7.00673L12.8415 8.72209ZM14.0845 7.75943C14.5748 7.5828 15.1034 7.56707 15.6016 7.71352L16.4477 4.83532C15.3376 4.50897 14.1565 4.54476 13.0677 4.93698L14.0845 7.75943ZM15.6016 7.71352C16.1004 7.86016 16.5528 8.16499 16.8922 8.59674L19.2507 6.74269C18.5339 5.83088 17.5572 5.16148 16.4477 4.83532L15.6016 7.71352ZM19.2507 8.59674C19.5901 8.16499 20.0425 7.86016 20.5413 7.71352L19.6952 4.83532C18.5857 5.16148 17.609 5.83088 16.8922 6.74269L19.2507 8.59674ZM20.5413 7.71352C21.0395 7.56707 21.5681 7.5828 22.0584 7.75943L23.0751 4.93698C21.9863 4.54476 20.8053 4.50897 19.6952 4.83532L20.5413 7.71352ZM22.0584 7.75943C22.5494 7.93631 22.9855 8.26896 23.3013 8.72209L25.7625 7.00673C25.0992 6.05496 24.1632 5.32895 23.0751 4.93698L22.0584 7.75943ZM23.3013 8.72209C23.6176 9.17587 23.7954 9.72567 23.8037 10.297L26.8034 10.2531C26.7864 9.09121 26.4254 7.95785 25.7625 7.00673L23.3013 8.72209Z" fill="#DAF66C"/>
</svg>
