<svg width="27" height="31" viewBox="0 0 27 31" fill="none" xmlns="http://www.w3.org/2000/svg">
<path d="M0 16.7681C0 20.3485 1.42232 23.7823 3.95406 26.314C6.4858 28.8457 9.91958 30.2681 13.5 30.2681C13.5 26.6876 12.0777 23.2539 9.54594 20.7221C7.0142 18.1904 3.58042 16.7681 0 16.7681ZM13.5 30.2681C17.0804 30.2681 20.5142 28.8457 23.0459 26.314C25.5777 23.7823 27 20.3485 27 16.7681C23.4196 16.7681 19.9858 18.1904 17.4541 20.7221C14.9223 23.2539 13.5 26.6876 13.5 30.2681ZM22.5 1.76807V9.26807C22.5 11.655 21.5518 13.9442 19.864 15.632C18.1761 17.3199 15.8869 18.2681 13.5 18.2681C11.1131 18.2681 8.82387 17.3199 7.13604 15.632C5.44821 13.9442 4.5 11.655 4.5 9.26807V1.76807C5.61 1.76807 6.705 1.94807 7.74 2.35307C8.565 2.69807 9.3 3.20807 9.915 3.85307L13.5 0.268066L17.085 3.85307C17.7 3.20807 18.435 2.69807 19.26 2.35307C20.2939 1.95712 21.3929 1.75869 22.5 1.76807Z" fill="#DAF66C"/>
</svg>
