<svg width="39" height="34" viewBox="0 0 39 34" fill="none" xmlns="http://www.w3.org/2000/svg">
<path d="M8.08511 15.1104L19.0404 20.7802C19.3286 20.9294 19.6714 20.9294 19.9596 20.7802L30.1277 15.5178M8.08511 15.1104L2.7527 12.3507C2.02523 11.9742 2.03418 10.9307 2.768 10.5667L19.0557 2.48844C19.3356 2.34959 19.6644 2.34959 19.9443 2.48844L36.232 10.5667C36.9658 10.9307 36.9748 11.9742 36.2473 12.3507L30.1277 15.5178M8.08511 15.1104V25.9831C8.08511 26.3629 8.30031 26.71 8.64057 26.8788L19.0391 32.0393C19.3284 32.1829 19.6691 32.1779 19.954 32.026L29.598 26.8855C29.924 26.7117 30.1277 26.3724 30.1277 26.003V15.5178" stroke="#DAF66C" stroke-width="3" stroke-linecap="round" stroke-linejoin="round"/>
</svg>
