<svg width="34" height="31" viewBox="0 0 34 31" fill="none" xmlns="http://www.w3.org/2000/svg">
<path d="M34 10.41C34 22.9393 17 30.2681 17 30.2681C17 30.2681 0 22.9393 0 10.41C0.029773 8.29773 0.663003 6.24638 1.81382 4.53416C2.96463 2.82194 4.57735 1.5317 6.43327 0.838409C8.28918 0.14512 10.2985 0.0823293 12.1887 0.658551C14.079 1.23477 15.7586 2.42212 17 4.05959C18.2414 2.42212 19.921 1.23477 21.8113 0.658551C23.7015 0.0823293 25.7108 0.14512 27.5667 0.838409C29.4227 1.5317 31.0354 2.82194 32.1862 4.53416C33.337 6.24638 33.9702 8.29773 34 10.41Z" fill="#DAF66C"/>
</svg>
