<svg width="44" height="47" viewBox="0 0 44 47" fill="none" xmlns="http://www.w3.org/2000/svg">
<path d="M0.785156 23.5096C0.78753 23.3419 0.913337 23.2006 1.07712 23.1814C1.54712 23.1215 2.01949 23.0496 2.49186 23.0448C4.9629 23.0257 7.43393 23.0496 9.9026 23.0305C16.6985 22.9754 22.1961 18.0357 22.8299 11.2011C23.1005 8.28325 22.9462 5.3271 23.0103 2.38772C23.0221 1.8559 23.1052 1.32648 23.174 0.797052C23.1954 0.626966 23.3355 0.5 23.504 0.5C23.5206 0.5 23.5348 0.5 23.5515 0.5C23.7176 0.5 23.86 0.622175 23.8838 0.78747C23.9502 1.25461 24.0357 1.72175 24.0405 2.19128C24.0618 4.6204 24.0238 7.04953 24.0523 9.47865C24.1425 17.3841 29.7065 22.9826 37.5065 23.0329C39.0898 23.0424 40.6731 23.0209 42.2563 23.0472C42.6717 23.0544 43.0871 23.1335 43.5025 23.1982C43.6616 23.2221 43.7803 23.3587 43.785 23.5216V23.5264C43.7898 23.6916 43.6758 23.8354 43.5144 23.8665C43.118 23.9432 42.724 24.0366 42.3276 24.0438C40.7443 24.0725 39.161 24.0534 37.5778 24.0558C29.7279 24.0678 24.1971 29.5584 24.0594 37.507C24.0167 39.9361 24.0666 42.3652 24.0452 44.7943C24.0404 45.2663 23.9597 45.7382 23.8933 46.2101C23.8695 46.3754 23.7295 46.5 23.5633 46.5C23.5467 46.5 23.5325 46.5 23.5159 46.5C23.3473 46.5 23.2049 46.373 23.1835 46.2029C23.1147 45.6759 23.0269 45.1465 23.0198 44.6171C22.977 41.934 23.1005 39.239 22.9153 36.5679C22.3955 29.1033 17.0451 24.1061 9.6676 24.0582C7.26065 24.0438 4.85371 24.0678 2.44676 24.0438C1.98863 24.039 1.53288 23.9528 1.07712 23.8833C0.910963 23.8569 0.789904 23.7132 0.792277 23.5431V23.5072L0.785156 23.5096Z" fill="white"/>
</svg>
