<svg width="28" height="31" viewBox="0 0 28 31" fill="none" xmlns="http://www.w3.org/2000/svg">
<path fill-rule="evenodd" clip-rule="evenodd" d="M16.8561 30.268H10.5258L10.5224 30.268H1.07692C0.482155 30.268 0 29.7994 0 29.2214V26.4308C0 22.84 2.42645 19.802 5.77242 18.7773C5.45401 12.2204 7.79447 5.63463 12.547 0.87265C13.3516 0.0665386 14.6484 0.0665377 15.453 0.872652C20.2056 5.63465 22.546 12.2205 22.2276 18.7774C25.5735 19.8021 28 22.8401 28 26.4309V29.2216C28 29.7995 27.5178 30.2681 26.9231 30.2681H16.8718C16.8665 30.2681 16.8613 30.268 16.8561 30.268ZM22.0268 20.9293C21.683 23.4121 20.9507 25.8613 19.8164 28.1751H25.8462V26.4309C25.8462 23.9409 24.2661 21.8077 22.0268 20.9293ZM5.97319 20.9292C3.73388 21.8076 2.15385 23.9408 2.15385 26.4308V28.1749H8.18359C7.04928 25.8612 6.317 23.412 5.97319 20.9292ZM14 13.5238C13.0087 13.5238 12.2051 14.3047 12.2051 15.268C12.2051 16.2313 13.0087 17.0122 14 17.0122C14.9913 17.0122 15.7949 16.2313 15.7949 15.268C15.7949 14.3047 14.9913 13.5238 14 13.5238ZM10.0513 15.268C10.0513 13.1488 11.8192 11.4308 14 11.4308C16.1808 11.4308 17.9487 13.1488 17.9487 15.268C17.9487 17.3872 16.1808 19.1052 14 19.1052C11.8192 19.1052 10.0513 17.3872 10.0513 15.268Z" fill="#DAF66C"/>
</svg>
