<svg width="48" height="47" viewBox="0 0 48 47" fill="none" xmlns="http://www.w3.org/2000/svg">
<path d="M8.28836 22.8867C6.94154 21.783 5.54445 20.7997 4.34169 19.619C-0.281753 15.0771 -0.553129 8.26428 3.63812 3.74579C7.98014 -0.933237 14.463 -1.27438 19.4851 2.97989C21.043 4.30099 22.4703 5.77594 24.1923 7.40139C25.7033 5.96658 27.1339 4.55183 28.6248 3.20063C33.3253 -1.0503 40.0293 -0.929892 44.2909 3.46151C48.6832 7.98334 48.6664 14.7594 44.1904 19.3548C42.8938 20.686 41.4532 21.8766 39.2118 23.9235C41.1215 25.3817 42.7565 26.3617 44.053 27.6727C48.5056 32.1778 48.6865 38.7666 44.6159 43.0844C39.9958 47.9875 33.7139 48.322 28.6148 43.8838C27.0803 42.5493 25.6564 41.0877 24.0483 39.5559C22.2994 41.1847 20.7516 42.7767 19.0462 44.1881C14.7545 47.7367 9.02544 47.7367 4.76383 44.2851C0.619483 40.9272 -0.760849 34.917 2.00987 30.2848C3.49406 27.8065 5.76557 25.8031 8.28836 22.8867Z" fill="white"/>
</svg>
