<svg width="193" height="192" viewBox="0 0 193 192" fill="none" xmlns="http://www.w3.org/2000/svg">
<g clip-path="url(#clip0_234_558)">
<path d="M41.8445 63.0926C41.1776 64.119 40.4764 64.9228 39.7411 65.5039C38.9956 66.0786 38.2255 66.3939 37.4307 66.4498C36.6258 66.4993 35.7957 66.2461 34.9404 65.6903L34.8498 65.6315L36.6936 62.7939L37.0105 62.9998C37.2319 63.1437 37.4374 63.2128 37.6271 63.2073C37.8132 63.1851 38.0295 63.0394 38.2759 62.7702C38.5224 62.501 38.8516 62.0495 39.2635 61.4156C39.6361 60.842 39.8956 60.4096 40.042 60.1183C40.1783 59.8204 40.229 59.6101 40.1943 59.4874C40.1561 59.348 40.0615 59.2293 39.9105 59.1313C39.7294 59.0136 39.5478 58.9957 39.3657 59.0778C39.1901 59.1497 38.9432 59.3756 38.6248 59.7555L36.1427 62.6506C35.6468 63.2156 35.1408 63.631 34.6247 63.8967C34.0985 64.1559 33.5655 64.2603 33.0257 64.2101C32.4859 64.1599 31.9444 63.9582 31.401 63.6052C30.9985 63.3436 30.6566 62.9998 30.3753 62.5738C30.0941 62.1477 29.9217 61.6422 29.8582 61.0571C29.7846 60.4655 29.855 59.7957 30.0691 59.0476C30.2833 58.2995 30.6879 57.4676 31.2828 56.5519C31.9824 55.4752 32.7087 54.6878 33.4617 54.1896C34.2112 53.6748 34.9738 53.4262 35.7495 53.4437C36.5217 53.4446 37.2851 53.6902 38.0398 54.1806L38.1304 54.2394L36.2866 57.077L36.0602 56.9299C35.8187 56.773 35.5916 56.7041 35.3788 56.7233C35.1725 56.7324 34.9346 56.8783 34.665 57.1611C34.402 57.4338 34.0645 57.8871 33.6526 58.521C33.3388 59.004 33.1253 59.3876 33.0121 59.6719C32.8889 59.9496 32.8399 60.1682 32.8651 60.3277C32.8968 60.4771 32.9882 60.6008 33.1391 60.6989C33.2397 60.7643 33.3433 60.803 33.45 60.8151C33.5531 60.8105 33.6575 60.771 33.7631 60.6965C33.8753 60.612 34.0053 60.489 34.1532 60.3275L36.6806 57.4618C37.3375 56.7152 37.9639 56.2135 38.56 55.9568C39.146 55.6936 39.6991 55.6022 40.2193 55.6826C40.7395 55.7631 41.2159 55.9438 41.6486 56.225C42.2222 56.5977 42.6559 57.1085 42.9498 57.7574C43.2402 58.3897 43.3157 59.1544 43.1765 60.0514C43.0273 60.9418 42.5833 61.9556 41.8445 63.0926Z" fill="black"/>
<path d="M48.5846 53.404L46.1651 55.7698L37.7341 47.1465L40.1537 44.7806L48.5846 53.404ZM53.8227 48.2822L46.8215 55.128L44.6948 52.9529L51.6961 46.107L53.8227 48.2822ZM50.446 45.2146L43.6378 51.8718L41.5238 49.7095L48.332 43.0524L50.446 45.2146ZM47.5183 41.834L40.5171 48.6798L38.3905 46.5047L45.3917 39.6588L47.5183 41.834Z" fill="black"/>
<path d="M58.8745 44.133L56.0122 45.9382L49.5799 35.7368L52.4422 33.9317L58.8745 44.133ZM64.7667 40.4171L56.8039 45.4389L55.1814 42.8657L63.1442 37.8439L64.7667 40.4171Z" fill="black"/>
<path d="M70.2287 37.5516L67.0543 38.7239L62.8776 27.4102L66.052 26.238L70.2287 37.5516ZM75.4629 31.1479L66.4629 34.4714L65.4156 31.6346L74.4156 28.311L75.4629 31.1479ZM74.0455 26.5289L64.7923 29.946L63.7387 27.0922L72.9919 23.6751L74.0455 26.5289Z" fill="black"/>
<path d="M87.2141 28.7216L79.7615 30.0946L79.24 27.2622L86.6926 25.8892L87.2141 28.7216Z" fill="black"/>
<path d="M94.1849 32.0191L88.9292 31.962L88.9625 28.9202L94.2182 28.9773C94.9382 28.9851 95.5088 28.9313 95.9301 28.8159C96.3514 28.7005 96.6543 28.4337 96.8389 28.0157C97.0236 27.5857 97.1209 26.9207 97.1307 26.0208C97.1407 25.1088 97.058 24.4419 96.8826 24.0199C96.7072 23.598 96.4101 23.3248 95.9915 23.2002C95.5728 23.0757 95.0035 23.0095 94.2836 23.0017L89.0279 22.9446L89.0611 19.9028L94.3168 19.9598C95.6487 19.9743 96.7981 20.2268 97.7647 20.7173C98.7316 21.1959 99.474 21.888 99.9922 22.7936C100.51 23.6993 100.762 24.7881 100.748 26.06C100.735 27.332 100.459 28.415 99.9209 29.3093C99.3831 30.2035 98.6256 30.8853 97.6484 31.3547C96.6713 31.8121 95.5169 32.0336 94.1849 32.0191ZM91.4671 31.9896L88.0833 31.9529L88.2152 19.8936L91.599 19.9303L91.4671 31.9896Z" fill="black"/>
<path d="M106.888 32.4458L103.525 32.0695L104.866 20.0844L108.229 20.4606L106.888 32.4458Z" fill="black"/>
<path d="M114.511 34.7845C113.35 34.3957 112.396 33.918 111.65 33.3514C110.907 32.7735 110.409 32.1067 110.156 31.3512C109.907 30.5843 109.944 29.7172 110.268 28.7501L110.302 28.6477L113.511 29.7228L113.391 30.0812C113.307 30.3315 113.292 30.5478 113.344 30.73C113.412 30.9047 113.608 31.0776 113.93 31.2489C114.252 31.4201 114.772 31.6259 115.489 31.866C116.137 32.0833 116.621 32.2264 116.939 32.2952C117.262 32.3526 117.478 32.3492 117.588 32.2848C117.714 32.2129 117.805 32.0916 117.862 31.9209C117.931 31.7161 117.903 31.5358 117.778 31.3801C117.664 31.2281 117.383 31.0455 116.936 30.8323L113.512 29.1535C112.841 28.8148 112.312 28.4288 111.926 27.9956C111.543 27.551 111.309 27.0611 111.222 26.526C111.136 25.9908 111.195 25.416 111.401 24.8015C111.554 24.3464 111.801 23.9294 112.143 23.5504C112.485 23.1715 112.932 22.8781 113.482 22.6702C114.037 22.451 114.703 22.3515 115.481 22.3717C116.259 22.3918 117.165 22.5754 118.201 22.9223C119.418 23.3302 120.362 23.8364 121.033 24.4408C121.719 25.0376 122.151 25.7138 122.328 26.4692C122.52 27.217 122.473 28.0176 122.187 28.871L122.153 28.9734L118.944 27.8983L119.03 27.6423C119.122 27.3692 119.131 27.1321 119.06 26.9309C118.999 26.7334 118.798 26.5396 118.457 26.3493C118.127 26.1629 117.604 25.9496 116.887 25.7094C116.341 25.5264 115.916 25.4157 115.613 25.3773C115.313 25.3275 115.089 25.3347 114.941 25.399C114.804 25.4671 114.707 25.5865 114.65 25.7572C114.612 25.8709 114.6 25.981 114.615 26.0872C114.646 26.1859 114.71 26.2771 114.809 26.3608C114.918 26.4482 115.07 26.5433 115.263 26.6461L118.67 28.376C119.558 28.8252 120.2 29.3062 120.598 29.8191C120.999 30.3206 121.226 30.8333 121.278 31.357C121.331 31.8808 121.275 32.3873 121.111 32.8766C120.894 33.5251 120.508 34.0729 119.953 34.5198C119.413 34.9591 118.692 35.2236 117.789 35.3133C116.889 35.3916 115.796 35.2153 114.511 34.7845Z" fill="black"/>
<path d="M127.97 40.4774C126.79 39.7394 125.911 38.8928 125.333 37.9374C124.762 36.9719 124.498 35.9574 124.54 34.894C124.589 33.8204 124.947 32.7494 125.615 31.6811C126.283 30.6127 127.085 29.8267 128.023 29.3232C128.967 28.8094 129.995 28.6029 131.106 28.7036C132.224 28.794 133.374 29.2083 134.554 29.9462C135.704 30.6651 136.577 31.452 137.175 32.3069C137.783 33.1681 138.102 34.0611 138.133 34.9859C138.163 35.9106 137.892 36.8309 137.319 37.7466L137.157 38.0061L133.952 36.0022L134.114 35.7427C134.477 35.1627 134.572 34.6488 134.399 34.2011C134.232 33.7431 133.727 33.2501 132.882 32.7221C132.19 32.2895 131.606 32.0236 131.131 31.9243C130.672 31.8212 130.251 31.9051 129.87 32.1759C129.494 32.4366 129.093 32.9079 128.667 33.5896C128.247 34.2611 127.999 34.8278 127.923 35.2895C127.846 35.7512 127.952 36.171 128.239 36.5488C128.543 36.9229 129.041 37.3262 129.733 37.7588C130.578 38.2868 131.239 38.5305 131.717 38.4899C132.202 38.439 132.626 38.1237 132.988 37.5437L133.15 37.2842L136.356 39.2882L136.193 39.5476C135.627 40.4532 134.919 41.0999 134.068 41.4877C133.223 41.8654 132.28 41.9695 131.24 41.8002C130.21 41.6372 129.12 41.1963 127.97 40.4774Z" fill="black"/>
<path d="M140.834 50.0391C139.883 49.0226 139.247 47.9741 138.926 46.8937C138.623 45.8138 138.628 44.7654 138.942 43.7485C139.265 42.7235 139.886 41.7805 140.806 40.9196C141.726 40.0587 142.704 39.5054 143.739 39.2597C144.783 39.0057 145.83 39.0702 146.878 39.4532C147.944 39.8367 148.952 40.5367 149.903 41.5532C150.887 42.6047 151.53 43.6704 151.834 44.7503C152.155 45.8307 152.154 46.8835 151.831 47.9086C151.517 48.9255 150.9 49.8643 149.98 50.7252C149.06 51.5861 148.078 52.1435 147.034 52.3975C145.998 52.6432 144.948 52.5743 143.882 52.1908C142.834 51.8078 141.818 51.0906 140.834 50.0391ZM143.2 47.8254C143.757 48.4212 144.249 48.8324 144.674 49.0588C145.108 49.277 145.545 49.3042 145.983 49.1405C146.43 48.9855 146.942 48.6375 147.52 48.0964C148.108 47.547 148.489 47.0588 148.664 46.6316C148.857 46.205 148.854 45.7719 148.657 45.3324C148.468 44.8846 148.095 44.3628 147.537 43.7669C146.98 43.171 146.488 42.7684 146.062 42.5589C145.645 42.3413 145.217 42.3143 144.778 42.478C144.357 42.6423 143.853 42.9991 143.266 43.5485C142.687 44.0896 142.298 44.5691 142.097 44.9869C141.905 45.4135 141.899 45.8463 142.079 46.2853C142.269 46.7161 142.642 47.2295 143.2 47.8254Z" fill="black"/>
<path d="M152.644 65.4099L150.336 61.1329L158.649 51.1435L160.59 54.7393L154.466 61.5836L154.577 61.7895L163.624 60.3627L165.556 63.9427L152.644 65.4099Z" fill="black"/>
<path d="M157.064 75.0521L156.184 71.7847L167.828 68.6453L168.708 71.9128L157.064 75.0521ZM158.971 82.1257L156.422 72.671L159.36 71.8792L161.908 81.3339L158.971 82.1257ZM163.297 80.6796L160.819 71.4856L163.739 70.6984L166.217 79.8924L163.297 80.6796ZM167.678 79.7782L165.13 70.3236L168.067 69.5317L170.615 78.9864L167.678 79.7782Z" fill="black"/>
<path d="M160.196 88.3913L160.065 85.0099L172.116 84.541L172.389 91.5737C172.43 92.6409 172.321 93.5398 172.061 94.2705C171.801 95.0012 171.403 95.5571 170.865 95.9383C170.34 96.331 169.682 96.5427 168.89 96.5735C168.255 96.5982 167.699 96.5058 167.222 96.2962C166.758 96.098 166.373 95.7648 166.067 95.2963C165.772 94.8274 165.562 94.2111 165.436 93.4474L165.257 93.4544C165.125 94.084 164.908 94.5368 164.607 94.8127C164.318 95.1002 163.95 95.3667 163.503 95.6122L160.539 97.2227L160.388 93.3196L163.282 91.7659C163.576 91.6104 163.804 91.4514 163.966 91.289C164.127 91.1266 164.233 90.9183 164.284 90.6641C164.346 90.4095 164.368 90.0604 164.351 89.6167L164.297 88.2318L160.196 88.3913ZM169.208 88.0407L166.815 88.1338L166.956 91.7491C166.975 92.2407 167.06 92.5856 167.212 92.7839C167.364 92.9821 167.698 93.0712 168.213 93.0512C168.693 93.0325 169.007 92.9182 169.155 92.7083C169.303 92.4984 169.367 92.1476 169.348 91.656L169.208 88.0407Z" fill="black"/>
<path d="M163.074 108.555L163.734 105.273L172.905 101.571L172.079 105.683L168.915 106.901L167.054 107.574L167.008 107.803L168.464 109.143L170.912 111.489L170.082 115.618L163.074 108.555ZM159.347 107.824L160.014 104.507L165.626 105.635L164.959 108.952L159.347 107.824Z" fill="black"/>
<path d="M156.246 117.875L157.631 114.533L166.958 125.411L165.573 128.753L156.246 117.875Z" fill="black"/>
<path d="M151.152 128.907C151.819 127.881 152.52 127.077 153.255 126.496C154 125.921 154.771 125.606 155.565 125.55C156.37 125.5 157.2 125.754 158.056 126.309L158.146 126.368L156.303 129.206L155.986 129C155.764 128.856 155.559 128.787 155.369 128.792C155.183 128.815 154.967 128.96 154.72 129.229C154.474 129.499 154.145 129.95 153.733 130.584C153.36 131.158 153.1 131.59 152.954 131.881C152.818 132.179 152.767 132.39 152.802 132.512C152.84 132.652 152.935 132.77 153.086 132.868C153.267 132.986 153.448 133.004 153.63 132.922C153.806 132.85 154.053 132.624 154.371 132.244L156.853 129.349C157.349 128.784 157.855 128.369 158.371 128.103C158.898 127.844 159.431 127.739 159.97 127.79C160.51 127.84 161.052 128.041 161.595 128.395C161.998 128.656 162.339 129 162.621 129.426C162.902 129.852 163.074 130.358 163.138 130.943C163.211 131.534 163.141 132.204 162.927 132.952C162.713 133.7 162.308 134.532 161.713 135.448C161.014 136.525 160.287 137.312 159.534 137.81C158.785 138.325 158.022 138.573 157.247 138.556C156.474 138.555 155.711 138.309 154.956 137.819L154.866 137.76L156.709 134.923L156.936 135.07C157.177 135.227 157.405 135.296 157.617 135.276C157.824 135.267 158.061 135.121 158.331 134.839C158.594 134.566 158.932 134.113 159.344 133.479C159.657 132.996 159.871 132.612 159.984 132.328C160.107 132.05 160.156 131.831 160.131 131.672C160.099 131.523 160.008 131.399 159.857 131.301C159.756 131.235 159.653 131.197 159.546 131.185C159.443 131.189 159.339 131.229 159.233 131.303C159.121 131.388 158.991 131.511 158.843 131.672L156.316 134.538C155.659 135.285 155.032 135.786 154.436 136.043C153.85 136.306 153.297 136.397 152.777 136.317C152.257 136.237 151.78 136.056 151.347 135.775C150.774 135.402 150.34 134.891 150.046 134.242C149.756 133.61 149.68 132.845 149.82 131.948C149.969 131.058 150.413 130.044 151.152 128.907Z" fill="black"/>
<path d="M144.408 138.586L146.827 136.22L155.258 144.844L152.839 147.209L144.408 138.586ZM139.17 143.708L146.171 136.862L148.297 139.037L141.296 145.883L139.17 143.708ZM142.546 146.775L149.354 140.118L151.468 142.281L144.66 148.938L142.546 146.775ZM145.474 150.156L152.475 143.31L154.602 145.485L147.6 152.331L145.474 150.156Z" fill="black"/>
<path d="M134.122 147.867L136.984 146.062L143.416 156.263L140.554 158.068L134.122 147.867ZM128.229 151.583L136.192 146.561L137.815 149.134L129.852 154.156L128.229 151.583Z" fill="black"/>
<path d="M122.767 154.448L125.942 153.276L130.119 164.589L126.944 165.762L122.767 154.448ZM117.533 160.852L126.533 157.528L127.58 160.365L118.581 163.689L117.533 160.852ZM118.951 165.471L128.204 162.054L129.257 164.907L120.004 168.325L118.951 165.471Z" fill="black"/>
<path d="M105.782 163.278L113.235 161.905L113.756 164.738L106.303 166.111L105.782 163.278Z" fill="black"/>
<path d="M98.8112 159.981L104.067 160.038L104.034 163.079L98.7779 163.022C98.0579 163.015 97.4873 163.068 97.066 163.184C96.6447 163.299 96.3418 163.566 96.1572 163.984C95.9725 164.414 95.8752 165.079 95.8654 165.979C95.8554 166.891 95.9381 167.558 96.1135 167.98C96.2889 168.402 96.5859 168.675 97.0046 168.799C97.4233 168.924 97.9926 168.99 98.7125 168.998L103.968 169.055L103.935 172.097L98.6793 172.04C97.3474 172.025 96.198 171.773 95.2314 171.282C94.2645 170.804 93.5221 170.112 93.0039 169.206C92.4858 168.3 92.2337 167.212 92.2476 165.94C92.2615 164.668 92.5374 163.585 93.0752 162.69C93.613 161.796 94.3705 161.114 95.3477 160.645C96.3248 160.188 97.4792 159.966 98.8112 159.981ZM101.529 160.01L104.913 160.047L104.781 172.106L101.397 172.069L101.529 160.01Z" fill="black"/>
<path d="M86.6731 159.446L90.036 159.823L88.6931 171.808L85.3301 171.431L86.6731 159.446Z" fill="black"/>
<path d="M78.4854 157.215C79.646 157.604 80.5997 158.082 81.3463 158.648C82.0892 159.226 82.5872 159.893 82.8402 160.649C83.0895 161.415 83.0521 162.282 82.728 163.25L82.6937 163.352L79.485 162.277L79.6051 161.919C79.689 161.668 79.7045 161.452 79.6516 161.27C79.5836 161.095 79.3885 160.922 79.0662 160.751C78.7439 160.58 78.2243 160.374 77.5075 160.134C76.8589 159.916 76.3753 159.773 76.0567 159.705C75.7342 159.647 75.5179 159.651 75.4077 159.715C75.2824 159.787 75.1911 159.908 75.1339 160.079C75.0653 160.284 75.0935 160.464 75.2185 160.62C75.3321 160.772 75.6126 160.954 76.0601 161.167L79.4841 162.846C80.1552 163.185 80.684 163.571 81.0704 164.004C81.453 164.449 81.6875 164.939 81.7739 165.474C81.8603 166.009 81.8006 166.584 81.5947 167.198C81.4422 167.653 81.1949 168.07 80.8528 168.449C80.5107 168.828 80.0643 169.122 79.5137 169.329C78.9594 169.549 78.2932 169.648 77.5153 169.628C76.7374 169.608 75.8308 169.424 74.7954 169.077C73.5779 168.669 72.6338 168.163 71.963 167.559C71.2771 166.962 70.8456 166.286 70.6684 165.531C70.4761 164.783 70.5229 163.982 70.8088 163.129L70.8431 163.026L74.0518 164.101L73.966 164.357C73.8745 164.63 73.8647 164.868 73.9364 165.069C73.9969 165.266 74.1977 165.46 74.5389 165.65C74.8688 165.837 75.3921 166.05 76.1089 166.29C76.6551 166.473 77.0799 166.584 77.3834 166.622C77.6832 166.672 77.9071 166.665 78.0552 166.601C78.1919 166.533 78.2888 166.413 78.346 166.243C78.3841 166.129 78.3957 166.019 78.3807 165.912C78.3505 165.814 78.2861 165.723 78.1876 165.639C78.0777 165.551 77.926 165.456 77.7327 165.354L74.3258 163.624C73.4385 163.174 72.7961 162.693 72.3984 162.181C71.997 161.679 71.7701 161.166 71.7178 160.643C71.6655 160.119 71.7213 159.612 71.8852 159.123C72.1026 158.475 72.4886 157.927 73.0433 157.48C73.5829 157.041 74.3043 156.776 75.2076 156.686C76.1071 156.608 77.1997 156.784 78.4854 157.215Z" fill="black"/>
<path d="M65.0185 151.52C66.1988 152.258 67.0776 153.104 67.6549 154.06C68.2259 155.025 68.4903 156.04 68.4482 157.103C68.3997 158.177 68.0415 159.248 67.3735 160.316C66.7055 161.384 65.9028 162.17 64.9653 162.674C64.0214 163.188 62.9936 163.394 61.8819 163.293C60.7638 163.203 59.6146 162.789 58.4343 162.051C57.2846 161.332 56.4108 160.545 55.8131 159.69C55.2053 158.829 54.8861 157.936 54.8558 157.011C54.8254 156.086 55.0964 155.166 55.669 154.25L55.8312 153.991L59.0363 155.995L58.8741 156.254C58.5115 156.834 58.4166 157.348 58.5895 157.796C58.7561 158.254 59.2616 158.747 60.1062 159.275C60.7981 159.707 61.3819 159.973 61.8576 160.073C62.3167 160.176 62.7371 160.092 63.1188 159.821C63.4941 159.56 63.8948 159.089 64.321 158.407C64.7409 157.736 64.989 157.169 65.0654 156.708C65.1418 156.246 65.0363 155.826 64.7489 155.448C64.4449 155.074 63.947 154.671 63.2551 154.238C62.4106 153.71 61.7492 153.467 61.2709 153.507C60.7863 153.558 60.3627 153.873 60.0001 154.453L59.8378 154.713L56.6327 152.709L56.795 152.449C57.3611 151.544 58.0697 150.897 58.9207 150.509C59.7654 150.132 60.708 150.027 61.7484 150.197C62.7787 150.36 63.8687 150.801 65.0185 151.52Z" fill="black"/>
<path d="M52.1622 141.961C53.1132 142.977 53.749 144.026 54.0696 145.106C54.3733 146.186 54.3682 147.234 54.0542 148.251C53.7315 149.276 53.1101 150.219 52.19 151.08C51.27 151.941 50.2923 152.494 49.2568 152.74C48.2127 152.994 47.1663 152.93 46.1178 152.547C45.0524 152.163 44.0442 151.463 43.0932 150.447C42.1094 149.395 41.4656 148.329 41.162 147.249C40.8413 146.169 40.8424 145.116 41.1651 144.091C41.4791 143.074 42.0961 142.135 43.0161 141.275C43.9362 140.414 44.9183 139.856 45.9625 139.602C46.9979 139.357 48.0483 139.425 49.1138 139.809C50.1622 140.192 51.1784 140.909 52.1622 141.961ZM49.7963 144.174C49.2389 143.579 48.7474 143.167 48.322 142.941C47.8877 142.723 47.4514 142.696 47.013 142.859C46.5664 143.014 46.0539 143.362 45.4756 143.903C44.8885 144.453 44.5073 144.941 44.3317 145.368C44.1393 145.795 44.1419 146.228 44.3395 146.667C44.5283 147.115 44.9015 147.637 45.459 148.233C46.0165 148.829 46.5082 149.231 46.9342 149.441C47.3515 149.658 47.7793 149.685 48.2177 149.522C48.6392 149.357 49.1435 149.001 49.7305 148.451C50.3089 147.91 50.6983 147.431 50.899 147.013C51.0915 146.586 51.0974 146.153 50.9167 145.714C50.7273 145.284 50.3538 144.77 49.7963 144.174Z" fill="black"/>
<path d="M40.3442 126.587L42.6522 130.864L34.3389 140.853L32.3985 137.258L38.5228 130.413L38.4116 130.207L29.3638 131.634L27.4319 128.054L40.3442 126.587Z" fill="black"/>
<path d="M35.9319 116.948L36.8125 120.215L25.1682 123.354L24.2877 120.087L35.9319 116.948ZM34.0256 109.874L36.5736 119.329L33.6365 120.121L31.0885 110.666L34.0256 109.874ZM29.6988 111.32L32.1766 120.514L29.2568 121.301L26.7791 112.107L29.6988 111.32ZM25.3185 112.221L27.8665 121.676L24.9294 122.468L22.3813 113.013L25.3185 112.221Z" fill="black"/>
<path d="M32.7998 103.611L32.931 106.992L20.8802 107.461L20.6071 100.428C20.5657 99.3611 20.6749 98.4622 20.9348 97.7315C21.1946 97.0009 21.5934 96.4449 22.131 96.0637C22.6561 95.671 23.3144 95.4593 24.1058 95.4285C24.7413 95.4038 25.2973 95.4962 25.7738 95.7059C26.2379 95.904 26.6231 96.2372 26.9295 96.7057C27.2239 97.1746 27.434 97.7909 27.5597 98.5546L27.7395 98.5476C27.8712 97.918 28.0878 97.4652 28.3893 97.1893C28.6784 96.9018 29.0464 96.6353 29.4932 96.3898L32.4569 94.7794L32.6084 98.6824L29.7145 100.236C29.4203 100.392 29.1923 100.551 29.0305 100.713C28.8687 100.875 28.7627 101.084 28.7125 101.338C28.6504 101.592 28.6279 101.942 28.6451 102.385L28.6989 103.77L32.7998 103.611ZM23.7886 103.961L26.1808 103.868L26.0404 100.253C26.0213 99.7613 25.9359 99.4164 25.7841 99.2181C25.6323 99.0199 25.2986 98.9308 24.783 98.9508C24.3033 98.9695 23.9895 99.0838 23.8416 99.2937C23.6936 99.5036 23.6291 99.8544 23.6482 100.346L23.7886 103.961Z" fill="black"/>
<path d="M29.9219 83.4448L29.2621 86.7271L20.0907 90.4287L20.9173 86.3169L24.0814 85.0985L25.9425 84.426L25.9886 84.1965L24.5319 82.8573L22.0843 80.5111L22.9144 76.3817L29.9219 83.4448ZM33.649 84.1754L32.9821 87.4931L27.3703 86.3653L28.0372 83.0476L33.649 84.1754Z" fill="black"/>
<path d="M36.75 74.1244L35.3651 77.4669L26.0386 66.5888L27.4234 63.2464L36.75 74.1244Z" fill="black"/>
<path fill-rule="evenodd" clip-rule="evenodd" d="M97.143 65.567C80.8079 65.567 67.5664 78.8085 67.5664 95.1437C67.5664 111.479 80.8079 124.72 97.143 124.72C113.478 124.72 126.72 111.479 126.72 95.1437C126.72 78.8085 113.478 65.567 97.143 65.567ZM97.143 68.5247C97.143 75.5845 94.3386 82.3551 89.3465 87.3471C84.3545 92.3392 77.5839 95.1437 70.5241 95.1437C77.5839 95.1437 84.3545 97.9481 89.3465 102.94C94.3386 107.932 97.143 114.703 97.143 121.763C97.143 114.703 99.9475 107.932 104.94 102.94C109.932 97.9481 116.702 95.1437 123.762 95.1437C116.702 95.1437 109.932 92.3392 104.94 87.3471C99.9475 82.3551 97.143 75.5845 97.143 68.5247Z" fill="black"/>
</g>
<defs>
<clipPath id="clip0_234_558">
<rect width="192" height="192" fill="white" transform="translate(0.5)"/>
</clipPath>
</defs>
</svg>
