<svg width="34" height="34" viewBox="0 0 34 34" fill="none" xmlns="http://www.w3.org/2000/svg">
<path d="M24.7018 21.5785C25.1102 20.9547 24.9356 20.118 24.3118 19.7096C23.688 19.3012 22.8513 19.4758 22.4429 20.0996L24.7018 21.5785ZM17 24.0181L17 25.3681L17 24.0181ZM11.5571 20.0996C11.1487 19.4758 10.312 19.3012 9.68819 19.7096C9.0644 20.118 8.8898 20.9548 9.29819 21.5785L11.5571 20.0996ZM15.35 13.5181C15.35 12.7725 14.7456 12.1681 14 12.1681C13.2544 12.1681 12.65 12.7725 12.65 13.5181H15.35ZM12.65 16.5181C12.65 17.2637 13.2544 17.8681 14 17.8681C14.7456 17.8681 15.35 17.2637 15.35 16.5181H12.65ZM21.35 13.5181C21.35 12.7725 20.7456 12.1681 20 12.1681C19.2544 12.1681 18.65 12.7725 18.65 13.5181H21.35ZM18.65 16.5181C18.65 17.2637 19.2544 17.8681 20 17.8681C20.7456 17.8681 21.35 17.2637 21.35 16.5181H18.65ZM22.4429 20.0996C21.4719 21.5827 19.7314 22.6681 17 22.6681L17 25.3681C20.535 25.3681 23.1761 23.909 24.7018 21.5785L22.4429 20.0996ZM17 22.6681C14.2686 22.668 12.5281 21.5826 11.5571 20.0996L9.29819 21.5785C10.8239 23.909 13.465 25.368 17 25.3681L17 22.6681ZM12.65 13.5181V16.5181H15.35V13.5181H12.65ZM18.65 13.5181V16.5181H21.35V13.5181H18.65ZM30.65 17.2681C30.65 24.8068 24.5387 30.9181 17 30.9181V33.6181C26.0299 33.6181 33.35 26.2979 33.35 17.2681H30.65ZM17 30.9181C9.46131 30.9181 3.35 24.8068 3.35 17.2681H0.65C0.65 26.2979 7.97014 33.6181 17 33.6181V30.9181ZM3.35 17.2681C3.35 9.72938 9.46131 3.61807 17 3.61807V0.918066C7.97014 0.918066 0.65 8.23821 0.65 17.2681H3.35ZM17 3.61807C24.5387 3.61807 30.65 9.72938 30.65 17.2681H33.35C33.35 8.23821 26.0299 0.918066 17 0.918066V3.61807Z" fill="#DAF66C"/>
</svg>
