<svg width="44" height="45" viewBox="0 0 44 45" fill="none" xmlns="http://www.w3.org/2000/svg">
<ellipse cx="22" cy="22.5" rx="22" ry="22.5" fill="white"/>
<path d="M21.4892 36.244C18.0957 36.1702 14.7787 34.9044 12.0157 32.2738C10.8125 31.1286 9.94197 29.7423 9.18816 28.2775C8.96771 27.8497 8.76875 27.4106 8.57633 26.9697C8.50814 26.8137 8.43715 26.7707 8.26247 26.7959C7.83279 26.8566 7.40031 26.9033 6.96689 26.9192C6.60446 26.9323 6.34852 26.6567 6.35973 26.3232C6.37094 25.9925 6.6138 25.7711 6.98277 25.7739C7.59833 25.7777 8.22044 25.788 8.79677 25.5432C9.1125 25.4096 9.39459 25.1929 9.68416 25.0014C9.89059 24.865 10.0727 24.6875 10.2876 24.5679C10.5856 24.4017 10.8462 24.4764 11.0227 24.7342C11.1927 24.9818 11.1638 25.3115 10.9088 25.5077C10.565 25.7711 10.2054 26.0215 9.82988 26.2354C9.62718 26.3513 9.59355 26.4381 9.68883 26.6465C10.4464 28.3093 11.3142 29.902 12.6032 31.2229C14.1912 32.8493 16.0986 33.9441 18.2759 34.5747C19.5314 34.9381 20.8157 35.1211 22.1207 35.0847C25.4255 34.9932 28.2614 33.7433 30.6947 31.5396C32.2116 30.1654 33.3307 28.511 34.1228 26.6287C34.1985 26.4475 34.1536 26.3821 33.9948 26.2868C33.5904 26.043 33.1952 25.7805 32.8151 25.5002C32.5965 25.3396 32.5526 25.0621 32.6525 24.8258C32.7413 24.6156 32.9851 24.4577 33.2158 24.4942C33.3326 24.5119 33.4549 24.567 33.5511 24.638C34.4441 25.2966 35.4511 25.6432 36.5496 25.7459C36.642 25.7543 36.7354 25.7618 36.8279 25.773C37.1623 25.8132 37.3809 26.0505 37.3706 26.3597C37.3604 26.6633 37.1175 26.9239 36.7943 26.9174C36.3833 26.909 35.9714 26.8781 35.565 26.8155C35.3735 26.7856 35.296 26.809 35.2194 26.994C33.8145 30.4055 31.4625 32.9604 28.2063 34.6812C26.2652 35.7059 23.9804 36.2599 21.4883 36.2431L21.4892 36.244Z" fill="black"/>
<path d="M19.3443 15.9933C19.3172 17.1451 19.1426 18.4062 18.5008 19.5599C18.2627 19.9877 17.9628 20.3679 17.506 20.5744C16.9736 20.8154 16.486 20.6912 16.061 20.3128C15.5202 19.8317 15.2138 19.2002 15.0157 18.5248C14.4562 16.622 14.46 14.72 15.154 12.8508C15.3109 12.4285 15.5529 12.0203 15.8312 11.6653C16.4869 10.8292 17.4192 10.833 18.1179 11.6354C18.583 12.1688 18.8437 12.8069 19.0305 13.4776C19.2463 14.2529 19.3387 15.046 19.3453 15.9933H19.3443Z" fill="black"/>
<path d="M24.3828 15.7657C24.4146 14.5886 24.5762 13.3387 25.2216 12.2056C25.3804 11.9263 25.585 11.6582 25.8194 11.4386C26.392 10.9006 27.0693 10.9052 27.6633 11.4209C28.1351 11.8301 28.4237 12.3644 28.6161 12.9445C29.3186 15.0576 29.3139 17.1604 28.4284 19.2211C28.2584 19.6163 27.9781 19.989 27.6717 20.2954C27.1169 20.8522 26.3706 20.8232 25.7942 20.2861C25.2711 19.7994 24.9862 19.1716 24.7742 18.5074C24.4996 17.6499 24.3931 16.7652 24.3837 15.7657H24.3828Z" fill="black"/>
</svg>
