<svg width="78" height="77" viewBox="0 0 78 77" fill="none" xmlns="http://www.w3.org/2000/svg">
<path fill-rule="evenodd" clip-rule="evenodd" d="M34.1538 20.8813L38.8473 0L43.5658 20.9925L58.0712 5.25549L51.6612 25.7948L72.0918 19.4188L56.611 33.688L77.1523 38.3051L56.271 42.9986L72.0918 57.5812L51.6612 51.2052L58.0712 71.7445L43.5658 56.0075L38.8473 77L34.1538 56.1186L19.5712 71.9394L25.9471 51.5089L5.40784 57.9188L21.3994 43.1788V43.0808L0.152344 38.3051L21.1449 33.5866L5.40783 19.0812L25.9471 25.4911L19.5712 5.06055L34.1538 20.8813ZM32.6372 22.052L34.0703 21.2481H43.3302L43.3302 21.2481H34.0713L34.0775 21.2205L32.6372 22.052Z" fill="#DAF66C"/>
<path d="M51.4914 43.0779C52.2641 41.9215 51.9531 40.3578 50.7968 39.585C49.6405 38.8123 48.0767 39.1233 47.304 40.2797L51.4914 43.0779ZM39.1012 46.5581L39.1012 49.0763L39.1012 46.5581ZM30.8984 40.2796C30.1257 39.1233 28.5619 38.8123 27.4056 39.5851C26.2492 40.3578 25.9383 41.9216 26.711 43.0779L30.8984 40.2796ZM36.9194 34.9186C36.9194 33.5279 35.792 32.4004 34.4013 32.4004C33.0105 32.4004 31.8831 33.5279 31.8831 34.9186H36.9194ZM31.8831 35.0465C31.8831 36.4373 33.0105 37.5647 34.4013 37.5647C35.792 37.5647 36.9194 36.4373 36.9194 35.0465H31.8831ZM46.3193 34.9186C46.3193 33.5279 45.1919 32.4004 43.8011 32.4004C42.4104 32.4004 41.283 33.5279 41.283 34.9186H46.3193ZM41.283 35.0465C41.283 36.4373 42.4104 37.5647 43.8011 37.5647C45.1919 37.5647 46.3193 36.4373 46.3193 35.0465H41.283ZM47.304 40.2797C45.8754 42.4176 43.2826 44.04 39.1012 44.04L39.1012 49.0763C44.7371 49.0764 49.0086 46.7933 51.4914 43.0779L47.304 40.2797ZM39.1012 44.04C34.9198 44.0399 32.327 42.4175 30.8984 40.2796L26.711 43.0779C29.1938 46.7933 33.4653 49.0762 39.1012 49.0763L39.1012 44.04ZM31.8831 34.9186V35.0465H36.9194V34.9186H31.8831ZM41.283 34.9186V35.0465H46.3193V34.9186H41.283Z" fill="black"/>
</svg>
