<svg width="30" height="31" viewBox="0 0 30 31" fill="none" xmlns="http://www.w3.org/2000/svg">
<path d="M15 8.04079L16.9773 13.2908L22.2273 15.2681L16.9773 17.2453L15 22.4953L13.0227 17.2453L7.77273 15.2681L13.0227 13.2908L15 8.04079ZM15 0.268066L14.242 2.28942C12.1243 7.93657 7.6685 12.3924 2.02135 14.5101L0 15.2681L2.02135 16.0261C7.6685 18.1438 12.1243 22.5996 14.242 28.2467L15 30.2681L15.758 28.2467C17.8757 22.5996 22.3315 18.1438 27.9786 16.0261L30 15.2681L27.9786 14.5101C22.3315 12.3924 17.8757 7.93657 15.758 2.28942L15 0.268066Z" fill="#DAF66C"/>
<path d="M15 8.04079L16.9773 13.2908L22.2273 15.2681L16.9773 17.2453L15 22.4953L13.0227 17.2453L7.77273 15.2681L13.0227 13.2908L15 8.04079Z" fill="#DAF66C"/>
</svg>
