<svg width="34" height="34" viewBox="0 0 34 34" fill="none" xmlns="http://www.w3.org/2000/svg">
<path d="M21.9175 9.69676L19.1273 4.53839C18.4346 3.25779 18.0882 2.61749 17.6296 2.40618C17.23 2.22204 16.7707 2.22203 16.371 2.40615C15.9124 2.61743 15.566 3.25771 14.8732 4.53827L12.0825 9.69686C11.8951 10.0433 11.8014 10.2165 11.6732 10.3561C11.5595 10.4798 11.4263 10.5837 11.279 10.6635C11.1127 10.7535 10.9229 10.8013 10.5432 10.897L4.60238 12.3946C3.32072 12.7177 2.67989 12.8793 2.36599 13.2474C2.09199 13.5688 1.96279 13.9906 2.00931 14.4118C2.0626 14.8944 2.50145 15.3922 3.37915 16.3878L7.2725 20.8044C7.52468 21.0904 7.65078 21.2335 7.73638 21.397C7.81226 21.542 7.86449 21.6984 7.89106 21.8601C7.92104 22.0425 7.90648 22.2333 7.87734 22.615L7.39429 28.9419C7.28287 30.4013 7.22716 31.131 7.49846 31.5606C7.73486 31.9349 8.12108 32.187 8.55656 32.2513C9.05632 32.325 9.69377 31.975 10.9687 31.275L15.8404 28.6002C16.264 28.3676 16.4758 28.2513 16.6997 28.2057C16.8978 28.1653 17.102 28.1654 17.3002 28.2059C17.524 28.2517 17.7357 28.3681 18.1592 28.601L23.0298 31.2799C24.3051 31.9813 24.9427 32.3319 25.4426 32.2585C25.8783 32.1944 26.2648 31.9424 26.5013 31.568C26.7728 31.1384 26.7171 30.4082 26.6057 28.9477L26.1226 22.6149C26.0935 22.2333 26.0789 22.0425 26.1089 21.8601C26.1355 21.6984 26.1877 21.542 26.2636 21.397C26.3492 21.2335 26.4753 21.0905 26.7274 20.8044L30.6209 16.3878C31.4985 15.3922 31.9374 14.8944 31.9907 14.4118C32.0372 13.9906 31.908 13.5688 31.634 13.2474C31.3201 12.8793 30.6793 12.7177 29.3976 12.3946L23.4569 10.8971C23.0772 10.8014 22.8873 10.7535 22.7211 10.6635C22.5737 10.5836 22.4405 10.4798 22.3268 10.3561C22.1986 10.2165 22.1049 10.0432 21.9175 9.69676Z" stroke="#DAF66C" stroke-width="3" stroke-linecap="round" stroke-linejoin="round"/>
</svg>
