<svg width="34" height="34" viewBox="0 0 34 34" fill="none" xmlns="http://www.w3.org/2000/svg">
<path d="M17 2.26807V5.26807M17 29.2681V32.2681M5 17.2681H2M8.47117 8.73924L6.34985 6.61792M25.5288 8.73924L27.6501 6.61792M8.47117 25.8031L6.34985 27.9244M25.5288 25.8031L27.6501 27.9244M32 17.2681H29M23.4491 15.5789C23.1811 14.5555 22.6733 13.6106 21.9679 12.8223C21.2624 12.034 20.3795 11.4249 19.392 11.0453M27.8333 17.2681C27.8333 23.2512 22.9831 28.1014 17 28.1014C11.0169 28.1014 6.16667 23.2512 6.16667 17.2681C6.16667 11.285 11.0169 6.43473 17 6.43473C22.9831 6.43473 27.8333 11.285 27.8333 17.2681Z" stroke="#DAF66C" stroke-width="3" stroke-linecap="round" stroke-linejoin="round"/>
</svg>
