<svg width="28" height="31" viewBox="0 0 28 31" fill="none" xmlns="http://www.w3.org/2000/svg">
<path d="M0 15.2743C0.00154568 15.165 0.0834665 15.0728 0.190118 15.0603C0.496162 15.0212 0.803751 14.9743 1.11134 14.9712C2.72039 14.9587 4.32944 14.9743 5.93694 14.9618C10.3622 14.9259 13.942 11.7044 14.3547 7.24703C14.5309 5.3441 14.4304 3.41618 14.4722 1.49919C14.4799 1.15235 14.534 0.807073 14.5788 0.461796C14.5927 0.35087 14.6839 0.268066 14.7937 0.268066C14.8045 0.268066 14.8138 0.268066 14.8246 0.268066C14.9328 0.268066 15.0255 0.347746 15.041 0.455547C15.0842 0.760203 15.1399 1.06486 15.143 1.37108C15.1569 2.95529 15.1322 4.5395 15.1507 6.12371C15.2094 11.2794 18.8325 14.9306 23.9116 14.9634C24.9426 14.9697 25.9735 14.9556 27.0045 14.9728C27.275 14.9775 27.5455 15.029 27.816 15.0712C27.9195 15.0868 27.9968 15.1759 27.9999 15.2821V15.2853C28.003 15.3931 27.9288 15.4868 27.8237 15.5071C27.5656 15.5571 27.309 15.618 27.0509 15.6227C26.0199 15.6415 24.9889 15.629 23.958 15.6305C18.8464 15.6383 15.245 19.2192 15.1553 24.4031C15.1275 25.9873 15.16 27.5715 15.1461 29.1557C15.143 29.4635 15.0904 29.7712 15.0471 30.079C15.0317 30.1868 14.9405 30.2681 14.8323 30.2681C14.8215 30.2681 14.8122 30.2681 14.8014 30.2681C14.6916 30.2681 14.5989 30.1853 14.585 30.0743C14.5402 29.7306 14.483 29.3853 14.4783 29.0401C14.4505 27.2903 14.5309 25.5326 14.4103 23.7906C14.0718 18.9224 10.5879 15.6633 5.78392 15.6321C4.2166 15.6227 2.64929 15.6383 1.08197 15.6227C0.783657 15.6196 0.486888 15.5633 0.190118 15.518C0.0819208 15.5009 0.00309135 15.4071 0.00463703 15.2962V15.2728L0 15.2743Z" fill="#DAF66C"/>
</svg>
